<?xml version="1.0" encoding="UTF-8"?>
<svg id="Layer_1" xmlns="http://www.w3.org/2000/svg" version="1.1" viewBox="0 0 64 64">
  <!-- Generator: Adobe Illustrator 30.3.0, SVG Export Plug-In . SVG Version: 2.1.3 Build 182)  -->
  <defs>
    <style>
      .st0 {
        fill: #2438ff;
      }

      .st1 {
        fill: #247aff;
      }

      .st2 {
        fill: #fff;
      }

      .st3 {
        fill: #0d2eff;
      }

      .st4 {
        fill: #60b8ff;
      }

      .st5 {
        fill: #6095ff;
      }

      .st6 {
        fill: #6060ff;
      }
    </style>
  </defs>
  <polygon class="st2" points="40.83 35.32 39.25 36.23 39.25 39.91 39.25 49.32 39.25 54.53 42.98 53.53 42.98 48.32 42.98 34.08 40.83 35.32"/>
  <polygon class="st2" points="31.11 44.14 31.11 51.5 31.11 56.71 34.83 55.72 34.83 50.5 34.83 41.99 31.11 44.14"/>
  <polygon class="st2" points="47.4 47.13 47.4 52.35 51.12 51.35 51.12 26.17 49.94 26.85 47.4 28.32 47.4 47.13"/>
  <polygon class="st4" points="40.83 10.41 40.83 1 4.94 10.62 4.94 49.11 14.06 46.66 14.06 17.58 40.83 10.41"/>
  <polygon class="st1" points="23.17 24.51 40.83 19.78 40.83 10.41 14.06 17.58 14.06 46.66 23.17 44.22 23.17 24.51"/>
  <polygon class="st3" points="40.83 35.32 40.83 19.78 23.17 24.51 23.17 44.22 39.25 39.91 39.25 36.23 40.83 35.32"/>
  <polygon class="st5" points="49.94 17.34 49.94 7.96 40.83 10.41 40.83 19.78 49.94 17.34"/>
  <polygon class="st5" points="14.06 46.66 14.06 56.07 23.17 53.63 23.17 44.22 14.06 46.66"/>
  <polygon class="st0" points="31.11 44.14 34.83 41.99 34.83 50.5 39.25 49.32 39.25 39.91 23.17 44.22 23.17 53.63 31.11 51.5 31.11 44.14"/>
  <polygon class="st0" points="40.83 35.32 42.98 34.08 42.98 48.32 47.4 47.13 47.4 28.32 49.94 26.85 49.94 17.34 40.83 19.78 40.83 35.32"/>
  <polygon class="st6" points="49.94 26.85 51.12 26.17 51.12 51.35 47.4 52.35 47.4 47.13 42.98 48.32 42.98 53.53 39.25 54.53 39.25 49.32 34.83 50.5 34.83 55.72 31.11 56.71 31.11 51.5 23.17 53.63 23.17 63 59.06 53.38 59.06 14.89 49.94 17.34 49.94 26.85"/>
</svg>
