<?xml version="1.0" encoding="UTF-8"?>
<svg id="Layer_1" xmlns="http://www.w3.org/2000/svg" version="1.1" viewBox="0 0 64 64">
  <!-- Generator: Adobe Illustrator 30.3.0, SVG Export Plug-In . SVG Version: 2.1.3 Build 182)  -->
  <defs>
    <style>
      .st0 {
        fill: #2438ff;
      }

      .st1 {
        fill: #247aff;
      }

      .st2 {
        fill: #fff;
      }

      .st3 {
        fill: #0d2eff;
      }

      .st4 {
        fill: #60b8ff;
      }

      .st5 {
        fill: #6095ff;
      }

      .st6 {
        fill: #6060ff;
      }
    </style>
  </defs>
  <polygon class="st2" points="40.15 35.07 38.7 35.91 38.7 39.31 38.7 48 38.7 52.82 42.14 51.9 42.14 47.08 42.14 33.92 40.15 35.07"/>
  <polygon class="st2" points="31.18 43.22 31.18 50.02 31.18 54.83 34.62 53.91 34.62 49.09 34.62 41.23 31.18 43.22"/>
  <polygon class="st2" points="46.23 45.98 46.23 50.8 49.67 49.88 49.67 26.61 48.58 27.24 46.23 28.6 46.23 45.98"/>
  <polygon class="st4" points="40.15 12.05 40.15 3.36 7 12.24 7 47.8 15.42 45.55 15.42 18.67 40.15 12.05"/>
  <polygon class="st1" points="23.85 25.08 40.15 20.71 40.15 12.05 15.42 18.67 15.42 45.55 23.85 43.29 23.85 25.08"/>
  <polygon class="st3" points="40.15 35.07 40.15 20.71 23.85 25.08 23.85 43.29 38.7 39.31 38.7 35.91 40.15 35.07"/>
  <polygon class="st5" points="48.58 18.45 48.58 9.79 40.15 12.05 40.15 20.71 48.58 18.45"/>
  <polygon class="st5" points="15.42 45.55 15.42 54.24 23.85 51.98 23.85 43.29 15.42 45.55"/>
  <polygon class="st0" points="31.18 43.22 34.62 41.23 34.62 49.09 38.7 48 38.7 39.31 23.85 43.29 23.85 51.98 31.18 50.02 31.18 43.22"/>
  <polygon class="st0" points="40.15 35.07 42.14 33.92 42.14 47.08 46.23 45.98 46.23 28.6 48.58 27.24 48.58 18.45 40.15 20.71 40.15 35.07"/>
  <polygon class="st6" points="48.58 27.24 49.67 26.61 49.67 49.88 46.23 50.8 46.23 45.98 42.14 47.08 42.14 51.9 38.7 52.82 38.7 48 34.62 49.09 34.62 53.91 31.18 54.83 31.18 50.02 23.85 51.98 23.85 60.64 57 51.76 57 16.2 48.58 18.45 48.58 27.24"/>
</svg>
