<?xml version="1.0" encoding="UTF-8"?>
<svg id="Layer_1" xmlns="http://www.w3.org/2000/svg" version="1.1" viewBox="0 0 64 64">
  <!-- Generator: Adobe Illustrator 30.3.0, SVG Export Plug-In . SVG Version: 2.1.3 Build 182)  -->
  <defs>
    <style>
      .st0 {
        fill: #ffce07;
      }
    </style>
  </defs>
  <path class="st0" d="M0,0v52.04C0,58.64,5.56,64,12.41,64h1.82V9.25C14.23,4.14,9.93,0,4.63,0H0Z"/>
  <path class="st0" d="M61.3,0h2.7v54.23c0,5.39-4.38,9.77-9.77,9.77h-2.7V9.77C51.53,4.38,55.91,0,61.3,0Z"/>
  <path class="st0" d="M20.97,41.52h1.51v19.04c0,6.74-5.47,12.21-12.21,12.21h-1.51v-19.04c0-6.74,5.47-12.21,12.21-12.21Z" transform="translate(72.77 41.52) rotate(90)"/>
  <path class="st0" d="M17.64,6.36h.16c6.38,0,11.56,5.18,11.56,11.56v31.45c0,1.1-.89,1.99-1.99,1.99h-9.73c-1.1,0-1.99-.89-1.99-1.99V8.36c0-1.1.89-1.99,1.99-1.99Z" transform="translate(51.37 6.36) rotate(90)"/>
  <path class="st0" d="M40.86,41.09h11.69c5.27,0,9.55,4.28,9.55,9.55v5.48c0,5.27-4.28,9.55-9.55,9.55h-2.14c-5.27,0-9.55-4.28-9.55-9.55v-15.03h0Z" transform="translate(104.86 1.9) rotate(90)"/>
</svg>